<svg width="375" height="349" viewBox="0 0 375 349" fill="none" xmlns="http://www.w3.org/2000/svg">
<rect width="375" height="349" fill="url(#paint0_linear_12805_372353)"/>
<g opacity="0.18" clip-path="url(#clip0_12805_372353)">
<g clip-path="url(#clip1_12805_372353)">
<path d="M337.5 218.752H37.5V240H337.5V218.752Z" fill="url(#paint1_linear_12805_372353)"/>
<g opacity="0.1">
<path d="M278.335 225.732C302.015 225.732 321.212 224.543 321.212 223.077C321.212 221.61 302.015 220.421 278.335 220.421C254.654 220.421 235.457 221.61 235.457 223.077C235.457 224.543 254.654 225.732 278.335 225.732Z" fill="black"/>
<path d="M112.464 225.732C140.548 225.732 163.314 224.543 163.314 223.077C163.314 221.61 140.548 220.421 112.464 220.421C84.3798 220.421 61.6133 221.61 61.6133 223.077C61.6133 224.543 84.3798 225.732 112.464 225.732Z" fill="black"/>
<path d="M197.371 225.732C209.903 225.732 220.062 224.543 220.062 223.077C220.062 221.61 209.903 220.421 197.371 220.421C184.839 220.421 174.68 221.61 174.68 223.077C174.68 224.543 184.839 225.732 197.371 225.732Z" fill="black"/>
</g>
<path d="M64.4031 204.479C62.3743 204.876 58.9263 204.464 58.3051 203.919C57.4023 203.126 61.1711 202.817 61.0611 201.122C60.9511 199.426 58.9287 203.027 57.4023 203.126C55.8763 203.225 53.2223 201.688 53.1619 200.758C53.1015 199.829 57.5991 198.942 57.5235 197.775C57.4479 196.609 53.5367 199.971 52.5191 200.037C51.5019 200.103 49.2743 197.267 49.1975 196.081C49.1203 194.894 53.0127 196.16 52.8995 194.414C52.8267 193.291 49.2327 195.312 48.6911 194.836C48.1495 194.361 47.2619 191.183 47.7379 190.641C48.2135 190.099 50.3495 190.216 50.2671 188.944C50.1847 187.673 47.5247 190.144 47.4807 189.465C47.4367 188.787 48.0531 185.821 48.9251 184.827C49.7971 183.834 52.9619 183.235 53.0111 183.998C53.0607 184.761 52.0939 186.109 52.3647 186.347C52.6355 186.585 53.9239 183.96 55.0259 183.889C56.1283 183.817 58.9531 184.379 59.0079 185.227C59.0631 186.075 57.6751 188.658 58.0815 189.015C58.4879 189.371 59.0535 185.927 60.0707 185.861C61.0879 185.795 62.9623 186.961 63.7751 187.674C64.5875 188.388 61.6751 191.887 62.1267 192.283C62.5783 192.679 64.1695 189.319 65.0171 189.265C65.8651 189.209 67.7719 191.044 67.4251 192.259C67.0783 193.473 65.8263 195.172 65.8811 196.02C65.9363 196.868 67.7807 192.491 68.4127 193.046C69.0447 193.601 71.2211 196.099 69.7783 200.109C68.7563 202.949 66.8207 204.007 64.4031 204.479Z" fill="#6AB04C"/>
<path d="M53.439 188.608C53.439 188.608 60.8462 193.536 68.0406 202.19C75.2346 210.844 76.4638 221.85 76.4638 221.85" stroke="#130F40" stroke-width="0.4" stroke-miterlimit="10" stroke-linecap="round"/>
<path d="M91.2909 201.423C93.3265 201.062 96.3941 199.436 96.7773 198.703C97.3337 197.638 93.7073 198.708 93.1989 197.087C92.6905 195.466 95.8745 198.096 97.3341 197.638C98.7933 197.18 100.715 194.79 100.436 193.902C100.158 193.013 95.6429 193.806 95.2933 192.691C94.9437 191.575 99.8033 193.302 100.776 192.997C101.749 192.692 102.805 189.245 102.45 188.11C102.094 186.974 98.9193 189.558 98.3961 187.889C98.0593 186.815 102.14 187.405 102.474 186.766C102.808 186.128 102.49 182.844 101.852 182.51C101.213 182.176 99.2621 183.054 98.8809 181.838C98.4997 180.622 101.871 181.969 101.668 181.321C101.465 180.672 99.8209 178.127 98.6493 177.515C97.4781 176.903 94.3101 177.484 94.5389 178.214C94.7677 178.943 96.1549 179.852 95.9881 180.172C95.8213 180.491 93.6737 178.507 92.6197 178.838C91.5657 179.168 89.1329 180.71 89.3873 181.521C89.6417 182.332 91.8669 184.241 91.6161 184.72C91.3653 185.199 89.5969 182.19 88.6241 182.494C87.6513 182.8 86.3229 184.563 85.8221 185.521C85.3213 186.479 89.2989 188.694 89.0205 189.226C88.7421 189.758 86.0473 187.198 85.2365 187.452C84.4257 187.706 83.3081 190.105 84.0693 191.112C84.8305 192.12 86.6105 193.254 86.8649 194.065C87.1189 194.876 83.8213 191.458 83.4317 192.203C83.0421 192.948 81.9121 196.063 84.7029 199.284C86.6789 201.565 88.8657 201.854 91.2909 201.423Z" fill="#6AB04C"/>
<path d="M80.0977 188.787C81.2813 187.092 82.3009 183.773 82.0533 182.984C81.6937 181.838 79.8861 185.159 78.3801 184.372C76.8741 183.585 80.9853 183.193 81.6937 181.837C82.4021 180.482 82.0709 177.433 81.2453 177.001C80.4201 176.57 77.7885 180.323 76.7521 179.782C75.7161 179.241 80.3737 177.025 80.8461 176.122C81.3185 175.218 79.6273 172.034 78.5729 171.483C77.5189 170.932 76.4637 174.441 75.5505 174.193C74.4645 173.899 77.8561 171.204 77.6405 170.516C77.4249 169.828 74.8781 167.73 74.1905 167.946C73.5025 168.161 72.7449 170.162 71.6153 169.572C70.4857 168.981 73.8225 167.55 73.2201 167.235C72.6177 166.92 69.6553 166.283 68.3941 166.678C67.1329 167.073 65.3041 169.725 65.9817 170.079C66.6593 170.433 68.2833 170.095 68.3909 170.439C68.4989 170.783 65.5773 170.898 65.0657 171.877C64.5541 172.856 63.9241 175.666 64.6773 176.06C65.4301 176.453 68.3537 176.23 68.5157 176.746C68.6773 177.262 65.2985 176.384 64.8265 177.288C64.3541 178.191 64.6617 180.377 64.9853 181.409C65.3089 182.441 69.6873 181.194 69.8669 181.767C70.0465 182.341 66.3301 182.435 65.9365 183.189C65.5429 183.942 66.4485 186.428 67.6993 186.603C68.9501 186.777 71.0105 186.32 71.7637 186.713C72.5165 187.107 67.7681 187.022 68.0197 187.824C68.2713 188.627 69.6745 191.628 73.9253 191.932C76.9365 192.148 78.6877 190.806 80.0977 188.787Z" fill="#6AB04C"/>
<path d="M95.9206 183.653C95.9206 183.653 92.0818 193.537 84.8874 202.19C77.6934 210.844 76.4642 221.85 76.4642 221.85C76.4642 221.85 78.4182 190.201 71.5366 173.889" stroke="#130F40" stroke-width="0.4" stroke-miterlimit="10" stroke-linecap="round"/>
<path d="M254.78 213.968H314.827V93.9282L254.78 93.9282V213.968Z" fill="#F193B5"/>
<path d="M250.78 213.968H310.827V93.9282L250.78 93.9282V213.968Z" fill="#F7ECF1"/>
<path d="M255.214 213.968H300.41V100.244H255.214V213.968Z" fill="#F193B5"/>
<path d="M259.06 213.968H304.255V100.244H259.06V213.968Z" fill="#95AFC0"/>
<path d="M296.523 213.968H304.255V100.244H259.06L296.523 213.968Z" fill="#7D374F"/>
<path d="M242.593 221.851H317.554V213.968H242.593V221.851Z" fill="#F193B5"/>
<path d="M239.465 221.851H310.827V213.968H239.465V221.851Z" fill="#D591B1"/>
<path d="M209.621 213.968H254.816V100.244H209.621V213.968Z" fill="#7D374F"/>
<path d="M206.462 213.968H251.657V100.244H206.462V213.968Z" fill="#F193B5"/>
<path d="M253.272 127.484H257V116.192H253.272V127.484Z" fill="#D591B1"/>
<path d="M253.272 198.02H257V186.728H253.272V198.02Z" fill="#D591B1"/>
<path d="M211.569 173.384C212.815 173.384 213.825 172.374 213.825 171.128V150.304C213.825 149.059 212.815 148.049 211.569 148.049C210.323 148.049 209.313 149.059 209.313 150.304V171.128C209.313 172.374 210.323 173.384 211.569 173.384Z" fill="#7D374F"/>
<path d="M210.684 156.112H211.91C212.446 156.112 212.88 155.677 212.88 155.141C212.88 154.605 212.446 154.171 211.91 154.171H210.684C210.148 154.171 209.714 154.605 209.714 155.141C209.714 155.677 210.149 156.112 210.684 156.112Z" fill="#F193B5"/>
<path d="M210.705 157.224C211.855 156.074 211.855 154.209 210.705 153.059C209.554 151.908 207.689 151.908 206.539 153.059C205.389 154.209 205.389 156.074 206.539 157.224C207.689 158.375 209.554 158.375 210.705 157.224Z" fill="#95AFC0"/>
<path d="M261.312 158.234L258.238 182.191L257.692 207.545L261.312 207.953L265.394 183.094L269.074 171.831L270.846 184.44L278.888 207.953L283.114 207.34L278.616 183.094L279.101 157.424L261.312 158.234Z" fill="#30336B"/>
<path d="M273.504 118.512C273.504 118.512 276.957 116.195 276.639 112.424C276.321 108.653 273.663 108.857 273.663 108.857C273.663 108.857 272.277 106.608 266.916 107.403C261.554 108.198 259.328 113.787 265.121 113.492C270.914 113.196 273.504 118.512 273.504 118.512Z" fill="#130F40"/>
<path d="M267.96 124.759L262.236 126.373L253.148 136.232L256.329 141.276L262.19 137.186L259.6 160.177L280.01 160.781L278.696 137.643L284.636 141.775L288.543 136.687L279.596 126.645L273.504 124.441L267.96 124.759Z" fill="#F9CA24"/>
<path d="M265.121 113.492C265.121 113.492 264.553 119.376 265.394 120.421C266.234 121.466 266.939 122.034 268.461 121.829C268.461 121.829 268.518 124.203 267.961 124.76C267.961 124.76 268.733 125.987 270.596 125.987C272.459 125.987 273.504 124.442 273.504 124.442C273.504 124.442 273.231 119.694 273.504 118.512L273.663 117.308C273.663 117.308 275.867 116.127 275.458 114.173C275.049 112.219 273.163 114.423 273.163 114.423C273.163 114.423 272.572 113.56 272.572 111.765C272.572 111.765 269.597 113.742 265.121 113.492Z" fill="#FFC2BD"/>
<path d="M257.889 207.567C257.889 207.567 258.044 208.571 257.889 208.726C257.734 208.881 249.763 213.042 249.763 213.042H261.645C261.645 213.042 260.524 210.57 261.027 207.922L257.889 207.567Z" fill="#FFC2BD"/>
<path d="M279.267 207.898C279.267 207.898 279.566 208.957 279.41 209.112C279.255 209.267 272.686 213.042 272.686 213.042H284.698C284.698 213.042 283.358 210.074 282.956 207.362L279.267 207.898Z" fill="#FFC2BD"/>
<path d="M252.546 211.242L253.892 213.355" stroke="#30336B" stroke-width="0.71184" stroke-miterlimit="10"/>
<path d="M275.14 211.242L276.486 213.355" stroke="#30336B" stroke-width="0.71184" stroke-miterlimit="10"/>
<path d="M261.714 213.974H249.696C249.438 213.974 249.23 213.766 249.23 213.509C249.23 213.251 249.438 213.043 249.696 213.043H261.714C261.971 213.043 262.179 213.251 262.179 213.509C262.179 213.765 261.971 213.974 261.714 213.974Z" fill="#30336B"/>
<path d="M284.598 213.974H272.58C272.323 213.974 272.114 213.766 272.114 213.509C272.114 213.251 272.323 213.043 272.58 213.043H284.598C284.855 213.043 285.063 213.251 285.063 213.509C285.064 213.765 284.855 213.974 284.598 213.974Z" fill="#30336B"/>
<path d="M284.935 141.386L285.772 142.082L279.399 155.85C279.399 155.85 278.616 157.633 280.479 159.496C282.341 161.359 283.028 161.322 283.568 160.781C283.568 160.781 284.091 160.814 284.386 160.336C284.386 160.336 284.977 160.359 285.227 159.768C285.227 159.768 285.772 159.7 285.772 158.95C285.772 158.2 285.795 155.974 285.295 155.974C284.795 155.974 284.545 156.792 284.545 156.792C284.545 156.792 284.352 156.122 284.068 156.406C283.784 156.69 283.705 157.065 283.705 157.065L283.5 156.883C283.5 156.883 283.977 156.318 283.386 155.454L290.756 143.63C291.671 142.163 291.401 140.252 290.115 139.095L288.092 137.274L284.935 141.386Z" fill="#FFC2BD"/>
<path d="M253.39 136.614L252.751 137.209L249.957 125.555C249.957 125.555 250.775 123.579 250.775 123.101C250.775 123.101 252.044 120.358 251.673 119.779C251.303 119.2 250.161 121.176 250.161 121.176C250.161 121.176 250.255 116.661 249.599 116.661C249.139 116.661 248.913 119.536 248.913 119.536C248.913 119.536 248.849 116.099 248.185 116.099C247.64 116.099 247.622 119.944 247.622 119.944C247.622 119.944 247.571 116.508 247.026 116.593C246.481 116.678 246.515 119.336 246.515 120.103C246.515 120.103 246.14 117.207 245.629 117.309C245.118 117.411 245.237 120.955 245.629 122.676C246.021 124.397 246.464 126.032 246.464 126.032L248.87 141.229C249.159 143.059 251.22 144.002 252.794 143.026L256.128 140.958L253.39 136.614Z" fill="#FFC2BD"/>
<mask id="mask0_12805_372353" style="mask-type:luminance" maskUnits="userSpaceOnUse" x="264" y="111" width="12" height="15">
<path d="M265.121 113.492C265.121 113.492 264.553 119.376 265.394 120.421C266.234 121.466 266.939 122.034 268.461 121.829C268.461 121.829 268.518 124.203 267.961 124.76C267.961 124.76 268.733 125.987 270.596 125.987C272.459 125.987 273.504 124.442 273.504 124.442C273.504 124.442 273.231 119.694 273.504 118.512L273.663 117.308C273.663 117.308 275.867 116.127 275.458 114.173C275.049 112.219 273.163 114.423 273.163 114.423C273.163 114.423 272.572 113.56 272.572 111.765C272.573 111.765 269.597 113.742 265.121 113.492Z" fill="white"/>
</mask>
<g mask="url(#mask0_12805_372353)">
<path opacity="0.1" d="M271.899 118.156C271.899 118.156 272.782 124.5 267.961 124.759V121.265L271.899 118.156Z" fill="black"/>
</g>
<path d="M162.179 192.25C164.001 192.25 165.477 190.773 165.477 188.951C165.477 187.129 164.001 185.652 162.179 185.652C160.357 185.652 158.88 187.129 158.88 188.951C158.88 190.773 160.357 192.25 162.179 192.25Z" fill="#F9CA24"/>
<path d="M156.128 186.862C156.128 186.862 158.136 183.623 162.048 183.623V194.078L156.128 186.862Z" fill="#C85E83"/>
<path d="M162.554 194.849C162.12 194.849 161.769 194.498 161.769 194.065V183.746C161.769 183.312 162.12 182.961 162.554 182.961C162.987 182.961 163.339 183.313 163.339 183.746V194.065C163.339 194.498 162.987 194.849 162.554 194.849Z" fill="#F193B5"/>
<path d="M124.313 193.358C124.313 193.358 127.478 187.284 126.522 182.612C125.566 177.94 122.84 177.213 122.84 177.213C122.84 177.213 141.927 177.213 144.151 177.213C146.376 177.213 151.01 187.055 151.01 187.055L124.313 193.358Z" fill="#F193B5"/>
<path d="M84.6603 218.673C91.1469 213.589 92.284 204.209 87.2 197.723C82.116 191.236 72.7361 190.099 66.2495 195.183C59.7629 200.267 58.6258 209.647 63.7098 216.133C68.7938 222.62 78.1736 223.757 84.6603 218.673Z" fill="#130F40"/>
<path d="M82.414 208.898C81.3232 212.746 77.3204 214.98 73.4732 213.89C69.626 212.799 67.3912 208.796 68.482 204.949C69.5728 201.102 73.5756 198.867 77.4228 199.958C81.27 201.048 83.5048 205.051 82.414 208.898Z" fill="#C85E83"/>
<path d="M78.0802 207.67C77.6682 209.124 76.1554 209.968 74.7018 209.556C73.2482 209.144 72.4038 207.631 72.8158 206.178C73.2278 204.724 74.7406 203.88 76.1942 204.292C77.6482 204.704 78.4926 206.216 78.0802 207.67Z" fill="#F193B5"/>
<path d="M79.7119 191.883C71.4047 189.528 62.7619 194.354 60.4067 202.66L90.4891 211.188C92.8439 202.882 88.0191 194.238 79.7119 191.883Z" fill="#F193B5"/>
<path d="M60.6187 201.172L90.7147 209.704C91.1103 209.816 91.3403 210.228 91.2283 210.623C91.1163 211.019 90.7043 211.249 90.3087 211.137L60.2131 202.605C59.8175 202.493 59.5875 202.081 59.6999 201.686C59.8111 201.29 60.2231 201.06 60.6187 201.172Z" fill="#C85E83"/>
<path d="M157.3 217.476C163.127 211.648 163.127 202.2 157.3 196.373C151.472 190.546 142.024 190.546 136.197 196.373C130.37 202.2 130.37 211.648 136.197 217.476C142.024 223.303 151.472 223.303 157.3 217.476Z" fill="#130F40"/>
<path d="M149.896 213.439C153.497 211.701 155.008 207.373 153.27 203.771C151.532 200.17 147.204 198.659 143.602 200.397C140.001 202.135 138.49 206.464 140.228 210.065C141.966 213.666 146.294 215.177 149.896 213.439Z" fill="#C85E83"/>
<path d="M149.382 207.671C148.97 209.125 147.458 209.969 146.004 209.557C144.55 209.145 143.706 207.632 144.118 206.179C144.53 204.725 146.043 203.881 147.496 204.293C148.95 204.705 149.794 206.217 149.382 207.671Z" fill="#F193B5"/>
<path d="M113.436 211.43C122.387 211.43 120.662 204.126 122.069 198.918C124.135 191.275 130.431 181.934 145.946 181.934C161.461 181.934 164.222 197.796 164.222 205.86H129.338V212.769C129.338 212.769 104.485 211.43 113.436 211.43Z" fill="#F193B5"/>
<path d="M86.7022 165.85C86.7022 165.85 89.3382 169.252 86.5286 175.459C83.719 181.666 79.3694 181.068 78.3246 185.278C77.2798 189.488 77.2002 190.397 77.2002 190.397C77.2002 190.397 86.721 191.124 90.0898 199.484C93.4582 207.844 92.2438 212.77 92.2438 212.77H102.979C102.979 212.77 95.305 206.474 91.9654 198.636C88.6258 190.798 89.989 176.213 92.9878 170.284C95.9866 164.354 91.7234 154.303 86.5286 154.303L86.7022 165.85Z" fill="#F193B5"/>
<path d="M86.5283 154.303C86.5283 154.303 87.7639 153.377 91.6099 155.299C95.4559 157.221 103.529 161.583 103.529 161.583C103.529 161.583 106.16 163.803 103.148 165.851C100.137 167.898 88.1371 172.958 91.4939 193.405C92.7455 201.027 102.979 209.81 102.979 209.81L129.338 209.987V212.77L98.6443 212.777C98.6443 212.777 87.9439 198.569 87.9439 187.755C87.9439 176.941 98.3795 160.836 86.5283 154.303Z" fill="#C85E83"/>
<path d="M85.3797 164.879C84.2393 164.879 83.3149 163.955 83.3149 162.814V157.232C83.3149 156.092 84.2393 155.167 85.3797 155.167V164.879Z" fill="#F9CA24"/>
<path d="M85.9958 166.306C85.313 166.306 84.7598 165.753 84.7598 165.07V155.31C84.7598 154.627 85.313 154.074 85.9958 154.074C86.6786 154.074 87.2318 154.628 87.2318 155.31V165.07C87.2318 165.753 86.6782 166.306 85.9958 166.306Z" fill="#F193B5"/>
<path d="M103.782 161.786L92.1123 155.497C92.8635 154.103 94.6027 153.582 95.9971 154.333L102.618 157.901C104.012 158.652 104.533 160.391 103.782 161.786Z" fill="#F193B5"/>
<path d="M129.225 215.447H92.6798C91.865 215.447 91.2046 214.787 91.2046 213.972C91.2046 213.157 91.865 212.497 92.6798 212.497H129.225C130.04 212.497 130.7 213.157 130.7 213.972C130.7 214.787 130.04 215.447 129.225 215.447Z" fill="#F6E58D"/>
<path d="M165.089 208.079H128.412C127.756 208.079 127.225 207.548 127.225 206.892C127.225 206.237 127.756 205.705 128.412 205.705H165.089C165.745 205.705 166.277 206.237 166.277 206.892C166.277 207.548 165.745 208.079 165.089 208.079Z" fill="#C85E83"/>
<path d="M145.207 179.756H122.343C122.274 179.756 122.218 179.7 122.218 179.631C122.218 177.793 123.708 176.303 125.547 176.303H148.41C148.479 176.303 148.535 176.359 148.535 176.428C148.535 178.266 147.045 179.756 145.207 179.756Z" fill="#F9CA24"/>
<path d="M173.087 183.097H149.656C148.977 183.097 148.427 182.546 148.427 181.868C148.427 181.189 148.977 180.639 149.656 180.639H173.087C173.766 180.639 174.316 181.19 174.316 181.868C174.316 182.546 173.766 183.097 173.087 183.097Z" fill="#C85E83"/>
<path d="M97.843 163.611C99.2133 163.611 100.324 162.5 100.324 161.13C100.324 159.759 99.2133 158.648 97.843 158.648C96.4727 158.648 95.3618 159.759 95.3618 161.13C95.3618 162.5 96.4727 163.611 97.843 163.611Z" fill="#30336B"/>
<path d="M98.9591 161.13C98.9591 161.746 98.4595 162.246 97.8431 162.246C97.2267 162.246 96.7271 161.746 96.7271 161.13C96.7271 160.513 97.2267 160.014 97.8431 160.014C98.4595 160.014 98.9591 160.513 98.9591 161.13Z" fill="#C85E83"/>
<path d="M177.924 180.639H149.898C149.145 180.639 148.536 180.029 148.536 179.277V157.129C148.536 156.377 149.146 155.767 149.898 155.767H177.924C178.676 155.767 179.286 156.377 179.286 157.129V179.277C179.286 180.029 178.676 180.639 177.924 180.639Z" fill="#C77398"/>
<path fill-rule="evenodd" clip-rule="evenodd" d="M163.381 167.725V168.685C163.381 169.997 162.312 171.063 161 171.063H160.289C158.977 171.063 157.911 169.997 157.911 168.685V167.725C157.911 166.409 158.977 165.343 160.289 165.343H161C162.312 165.343 163.381 166.409 163.381 167.725ZM161.973 167.851C161.973 167.27 161.502 166.799 160.918 166.799H160.371C159.79 166.799 159.318 167.27 159.318 167.851V168.555C159.318 169.136 159.79 169.607 160.371 169.607H160.918C161.502 169.607 161.973 169.136 161.973 168.555V167.851Z" fill="#FAF5F8"/>
<path d="M169.231 165.343H168.944C168.568 165.343 168.264 165.647 168.264 166.023V166.385C168.264 166.761 168.568 167.065 168.944 167.065H169.231C169.607 167.065 169.911 166.761 169.911 166.385V166.023C169.911 165.647 169.607 165.343 169.231 165.343Z" fill="#FAF5F8"/>
<path d="M167.604 169.166L165.848 169.58C165.848 169.58 165.847 169.58 165.845 169.58C165.841 169.583 165.838 169.583 165.834 169.576C165.827 169.573 165.831 169.569 165.831 169.566L167.45 165.746C167.481 165.674 167.474 165.592 167.43 165.527C167.389 165.462 167.317 165.425 167.239 165.425H163.982C163.866 165.425 163.767 165.514 163.753 165.63L163.593 167.024C163.586 167.099 163.613 167.174 163.671 167.225C163.73 167.273 163.808 167.294 163.883 167.273L165.428 166.856L163.791 170.745C163.76 170.816 163.771 170.895 163.812 170.96C163.856 171.025 163.928 171.062 164.003 171.062H167.488C167.604 171.062 167.7 170.977 167.717 170.861L167.888 169.416C167.895 169.34 167.867 169.269 167.813 169.217C167.755 169.166 167.679 169.149 167.604 169.166Z" fill="#FAF5F8"/>
<path d="M169.668 167.362H168.551C168.435 167.362 168.342 167.451 168.342 167.557V170.844C168.342 170.964 168.445 171.063 168.571 171.063H169.644C169.771 171.063 169.876 170.964 169.876 170.844V167.557C169.876 167.451 169.784 167.362 169.668 167.362Z" fill="#FAF5F8"/>
<path d="M138.551 203.437H128.383C127.969 203.437 127.633 203.101 127.633 202.687C127.633 202.273 127.969 201.938 128.383 201.938H138.551C138.965 201.938 139.3 202.273 139.3 202.687C139.3 203.101 138.965 203.437 138.551 203.437Z" fill="#C85E83"/>
<path d="M138.551 200.425H128.383C127.969 200.425 127.633 200.09 127.633 199.676C127.633 199.262 127.969 198.926 128.383 198.926H138.551C138.965 198.926 139.3 199.262 139.3 199.676C139.3 200.09 138.965 200.425 138.551 200.425Z" fill="#C85E83"/>
<path d="M138.551 197.414H128.383C127.969 197.414 127.633 197.079 127.633 196.665C127.633 196.251 127.969 195.915 128.383 195.915H138.551C138.965 195.915 139.3 196.251 139.3 196.665C139.3 197.079 138.965 197.414 138.551 197.414Z" fill="#C85E83"/>
<path d="M126.834 216.45C126.834 216.45 126.745 216.912 128.664 217.982C130.582 219.051 134.23 220.907 134.23 221.221C134.23 221.536 134.167 221.85 133.727 221.85C133.287 221.85 122.028 221.85 122.028 221.85C122.028 221.85 121.556 221.316 121.808 219.964C122.059 218.611 123.192 215.655 123.192 215.655L126.834 216.45Z" fill="#30336B"/>
<path d="M148.157 216.45C148.157 216.45 148.068 216.912 149.987 217.982C151.905 219.051 155.553 220.907 155.553 221.221C155.553 221.536 155.49 221.85 155.05 221.85C154.609 221.85 143.351 221.85 143.351 221.85C143.351 221.85 142.879 221.316 143.131 219.964C143.382 218.611 144.515 215.655 144.515 215.655L148.157 216.45Z" fill="#30336B"/>
<path d="M136.065 120.614L132.909 128.853L132.249 128.665C132.249 128.665 129.072 125.929 129.874 120.771L136.065 120.614Z" fill="#130F40"/>
<path d="M140.363 120.425C140.363 120.425 140.677 126.935 140.017 127.973C139.356 129.011 139.105 129.546 137.438 129.797C137.438 129.797 137.061 130.71 137.438 131.779C137.438 131.779 136.526 132.502 134.985 132.502C133.444 132.502 132.595 131.967 132.595 131.967C132.595 131.967 132.689 129.451 132.249 128.665L133.255 127.092C133.255 127.092 130.865 125.174 131.997 123.161C133.129 121.148 134.608 122.721 134.608 122.721L135.632 120.425L140.363 120.425Z" fill="#FFC2BD"/>
<path d="M129.544 120.424C129.544 117.416 131.983 114.977 134.991 114.977C137.999 114.977 140.438 117.415 140.438 120.424H129.544Z" fill="#B15177"/>
<mask id="mask1_12805_372353" style="mask-type:luminance" maskUnits="userSpaceOnUse" x="129" y="114" width="12" height="7">
<path d="M129.544 120.424C129.544 117.416 131.983 114.977 134.991 114.977C137.999 114.977 140.438 117.415 140.438 120.424H129.544Z" fill="white"/>
</mask>
<g mask="url(#mask1_12805_372353)">
<path d="M134.786 120.424C134.786 117.416 137.225 114.977 140.233 114.977C143.241 114.977 145.68 117.415 145.68 120.424H134.786Z" fill="#F9CA24"/>
</g>
<path d="M145.631 120.111H129.875C129.692 120.111 129.544 120.259 129.544 120.441C129.544 120.624 129.692 120.772 129.875 120.772H145.631C145.813 120.772 145.961 120.624 145.961 120.441C145.961 120.258 145.813 120.111 145.631 120.111Z" fill="#B15177"/>
<path d="M131.809 133.519C131.809 133.519 126.243 136.716 117.531 145.427L103.253 154.296L105.203 157.315L119.984 151.025L128.287 144.484C128.287 144.484 132.05 139.125 131.809 133.519Z" fill="#30336B"/>
<mask id="mask2_12805_372353" style="mask-type:luminance" maskUnits="userSpaceOnUse" x="131" y="120" width="10" height="13">
<path d="M140.363 120.425C140.363 120.425 140.677 126.935 140.017 127.973C139.356 129.011 139.105 129.546 137.438 129.797C137.438 129.797 137.061 130.71 137.438 131.779C137.438 131.779 136.526 132.502 134.985 132.502C133.444 132.502 132.595 131.967 132.595 131.967C132.595 131.967 132.689 129.451 132.249 128.665L133.255 127.092C133.255 127.092 130.865 125.174 131.997 123.161C133.129 121.148 134.608 122.721 134.608 122.721L135.632 120.425H140.363V120.425Z" fill="white"/>
</mask>
<g mask="url(#mask2_12805_372353)">
<path opacity="0.1" d="M137.438 129.797C137.438 129.797 136.003 129.234 135.058 128.289C135.058 128.289 135.269 130.696 136.325 131.752C137.381 132.808 138.265 132.065 138.265 132.065L137.438 129.797Z" fill="black"/>
</g>
<path d="M139.357 133.309C139.357 133.309 139.797 132.156 139.042 131.926C138.287 131.695 132.233 131.616 131.693 132.156C131.153 132.696 131.809 133.519 131.809 133.519C131.809 133.519 129.576 134.264 128.443 138.1C127.311 141.937 127.374 151.341 127.374 151.341C127.374 151.341 126.995 163.386 127.373 164.172C127.751 164.958 128.223 165.398 128.223 165.398H145.049C145.049 165.398 145.678 164.581 145.678 163.354C145.678 162.128 143.98 144.484 143.98 144.484C143.98 144.484 142.596 140.018 143.477 135.49C143.477 135.49 140.741 133.676 139.357 133.309Z" fill="#B15177"/>
<path d="M143.476 135.49C143.476 135.49 147.303 138.048 153.425 145.638L159.715 134.903L163.028 136.538L157.188 149.224C155.998 151.811 152.621 152.47 150.545 150.52L143.929 144.308C143.929 144.308 141.579 138.132 143.476 135.49Z" fill="#30336B"/>
<path d="M145.049 165.398L148.351 192.602V216.503H144.106L141.181 194.111L137.155 180.525L134.891 193.608L127.206 216.503L122.814 215.874L127.206 190.212L128.224 165.398H145.049Z" fill="#130F40"/>
<path d="M159.999 135.043C159.999 135.043 160.302 133.965 160.145 133.43C159.988 132.895 158.73 130.143 158.525 129.703C158.321 129.263 158.541 128.791 158.919 128.791C159.296 128.791 160.19 129.876 160.19 129.876C160.19 129.876 160.412 128.193 160.554 127.706C160.695 127.218 161.467 125.853 161.686 125.772C162.095 125.62 162.331 125.803 162.331 126.243C162.331 126.243 163.086 125.521 163.432 125.631C163.778 125.74 163.746 126.605 163.558 127.297C163.558 127.297 164.281 126.495 164.627 126.495C164.973 126.495 165.036 127.297 164.831 128.052C164.831 128.052 165.319 127.517 165.665 127.517C166.011 127.517 166.011 128.35 165.869 128.885C165.727 129.42 164.045 134.389 163.762 135.112C163.479 135.835 162.834 136.622 162.834 136.622L159.999 135.043Z" fill="#FFC2BD"/>
<path d="M103.391 154.512C103.391 154.512 100.694 156.121 100.066 156.373C99.4369 156.624 97.6757 157.19 96.4385 158.176C95.2017 159.161 94.5909 160.014 95.0509 161.509C95.4809 162.907 95.8953 163.479 96.2517 162.933C96.6081 162.388 96.0393 161.409 96.0393 161.409C96.0393 161.409 95.9369 159.807 97.8433 159.078C98.6361 158.774 99.8285 159.551 99.9161 159.883C100.196 160.949 99.8229 161.848 99.6345 162.247C99.4457 162.645 99.3081 163.378 99.9581 163.147C100.608 162.916 101.355 161.059 101.911 160.503C102.282 160.132 102.288 159.665 102.728 159.225C103.169 158.784 105.136 157.214 105.136 157.214L103.391 154.512Z" fill="#FFC2BD"/>
<path d="M209.732 221.851C209.165 221.851 208.704 221.39 208.704 220.823V200.119H210.76V220.823C210.76 221.39 210.3 221.851 209.732 221.851Z" fill="#FFBE76"/>
<path d="M186.547 221.851C185.979 221.851 185.519 221.39 185.519 220.823V200.119H187.575V220.823C187.575 221.39 187.114 221.851 186.547 221.851Z" fill="#FFBE76"/>
<g opacity="0.1">
<path d="M210.761 200.119H208.705V205.39H210.761V200.119Z" fill="black"/>
<path d="M187.575 200.119H185.519V205.39H187.575V200.119Z" fill="black"/>
</g>
<path d="M214.481 201.735H181.798C180.51 201.735 179.465 200.691 179.465 199.403C179.465 198.114 180.51 197.07 181.798 197.07H214.481C215.77 197.07 216.814 198.114 216.814 199.403C216.814 200.691 215.77 201.735 214.481 201.735Z" fill="#F6E58D"/>
<path d="M212.801 175.949C212.801 175.949 216.724 173.494 216.491 171.667C216.259 169.839 213.959 170.617 213.959 170.617C213.959 170.617 216.393 166.681 214.227 166.092C212.06 165.504 211.593 169.019 211.593 169.019C211.593 169.019 212.026 163.944 209.693 163.905C207.36 163.866 208.399 169.118 208.399 169.118C208.399 169.118 207.303 166.691 205.351 166.776C203.399 166.861 204.948 170.285 204.948 170.285C204.948 170.285 204.32 169.19 203.163 169.669C202.007 170.148 203.371 172.599 203.371 172.599L212.801 175.949Z" fill="#BADC58"/>
<path d="M204.041 177.191C204.041 177.191 201.357 173.422 202.271 171.823C203.184 170.225 205.012 171.823 205.012 171.823C205.012 171.823 204.27 167.255 206.497 167.54C208.724 167.826 207.81 171.252 207.81 171.252C207.81 171.252 209.352 166.398 211.522 167.255C213.692 168.111 210.723 172.566 210.723 172.566C210.723 172.566 212.664 170.743 214.435 171.569C216.205 172.395 213.464 174.964 213.464 174.964C213.464 174.964 214.463 174.193 215.348 175.079C216.234 175.964 214.035 177.705 214.035 177.705L204.041 177.191Z" fill="#6AB04C"/>
<path d="M200.426 168.676H194.315V176.881H200.426V168.676Z" fill="#EB4D4B"/>
<path d="M198.626 168.676H192.515V176.881H198.626V168.676Z" fill="#FF7979"/>
<path d="M197.714 169.521H193.429V171.522H197.714V169.521Z" fill="#F7ECF1"/>
<path d="M197.714 172.566H193.429V174.568H197.714V172.566Z" fill="#F7ECF1"/>
<path d="M200.541 169.796L196.988 173.35L202.358 178.72L205.912 175.167L200.541 169.796Z" fill="#973F5F"/>
<path d="M199.128 171.211L195.575 174.764L200.945 180.135L204.499 176.581L199.128 171.211Z" fill="#7ED6DF"/>
<path d="M199.158 172.149L196.513 174.794L198.088 176.369L200.733 173.724L199.158 172.149Z" fill="#F7ECF1"/>
<path d="M212.804 197.069H195.012L192.029 175.083H215.786L212.804 197.069Z" fill="#973F5F"/>
<path d="M209.821 197.069H195.012L192.029 175.083H212.804L209.821 197.069Z" fill="#C7ECEE"/>
<path d="M195.389 183.278H195.392C195.392 183.278 194.589 181.365 195.04 179.846C195.491 178.327 195.24 177.205 194.388 177.441C193.536 177.678 193.329 177.261 192.684 176.616C192.039 175.972 191.832 177.077 190.88 177.077C189.927 177.077 190.028 176.453 189.075 176.658C188.123 176.862 187.453 177.824 187.071 177.441C186.688 177.058 185.629 176.114 184.666 177.077C183.703 178.04 184.615 178.207 184.965 179.46C185.316 180.713 184.666 183.277 184.666 183.277H184.669C182.273 187.476 180.707 189.573 180.707 192.726C180.707 197.875 184.881 198.123 190.029 198.123C195.178 198.123 199.352 197.875 199.352 192.726C199.352 189.574 197.785 187.476 195.389 183.278Z" fill="#95AFC0"/>
<path d="M193.406 179.857L192.676 179.57C193.674 177.026 194.455 173.388 193.368 171.509C192.98 170.836 192.387 170.45 191.557 170.325C191.103 170.256 190.699 170.378 190.321 170.694C188.13 172.529 187.905 179.694 187.903 179.766L187.118 179.744C187.126 179.435 187.355 172.153 189.816 170.092C190.368 169.63 190.992 169.448 191.673 169.548C192.74 169.708 193.539 170.236 194.048 171.116C195.273 173.234 194.519 177.02 193.406 179.857Z" fill="#95AFC0"/>
<path d="M186.133 181.191C186.037 180.897 183.813 173.96 185.441 171.193C185.806 170.572 186.334 170.19 187.008 170.059C188.067 169.853 188.996 170.081 189.771 170.739C191.635 172.325 192.194 176.145 192.096 179.191L191.312 179.165C191.4 176.433 190.916 172.744 189.262 171.338C188.67 170.835 187.981 170.668 187.159 170.829C186.708 170.917 186.368 171.167 186.118 171.591C184.668 174.055 186.858 180.88 186.88 180.949L186.133 181.191Z" fill="#95AFC0"/>
<path d="M157.026 69.745C157.601 69.745 158.156 69.8322 158.678 69.9946C160.366 67.547 163.189 65.9418 166.388 65.9418C167.36 65.9418 168.298 66.0902 169.18 66.3654C170.664 60.8962 175.661 56.8726 181.6 56.8726C187.456 56.8726 192.394 60.7834 193.956 66.1346C194.569 66.0082 195.204 65.9418 195.854 65.9418C199.182 65.9418 202.101 67.6794 203.762 70.295C204.492 69.9426 205.31 69.745 206.175 69.745C209.245 69.745 211.734 72.2338 211.734 75.3034H151.467C151.467 72.2338 153.956 69.745 157.026 69.745Z" fill="#C7ECEE"/>
<path d="M233.869 84.37C234.169 84.37 234.458 84.4156 234.73 84.5C235.61 83.2244 237.081 82.388 238.748 82.388C239.255 82.388 239.743 82.4652 240.203 82.6088C240.977 79.7584 243.581 77.6616 246.676 77.6616C249.728 77.6616 252.301 79.6996 253.115 82.4884C253.435 82.4228 253.766 82.388 254.105 82.388C255.839 82.388 257.361 83.2936 258.226 84.6568C258.606 84.4732 259.033 84.37 259.483 84.37C261.083 84.37 262.38 85.6668 262.38 87.2668H230.973C230.972 85.6672 232.269 84.37 233.869 84.37Z" fill="#C7ECEE"/>
<path d="M108.735 93.1354C109.073 93.1354 109.4 93.187 109.707 93.2822C110.701 91.8414 112.363 90.8966 114.245 90.8966C114.818 90.8966 115.37 90.9838 115.889 91.1458C116.763 87.9266 119.704 85.5586 123.199 85.5586C126.646 85.5586 129.553 87.8606 130.472 91.0102C130.833 90.9358 131.206 90.8966 131.589 90.8966C133.547 90.8966 135.266 91.9194 136.243 93.459C136.673 93.2514 137.155 93.1354 137.664 93.1354C139.471 93.1354 140.935 94.6002 140.935 96.407H105.463C105.463 94.6002 106.928 93.1354 108.735 93.1354Z" fill="#C7ECEE"/>
<path d="M282.712 70.9146C283.023 70.9146 283.323 70.9618 283.606 71.0498C284.52 69.725 286.047 68.8562 287.778 68.8562C288.305 68.8562 288.812 68.9366 289.29 69.0854C290.093 66.1254 292.798 63.9478 296.012 63.9478C299.181 63.9478 301.854 66.0646 302.699 68.9606C303.031 68.8922 303.374 68.8562 303.726 68.8562C305.527 68.8562 307.108 69.7966 308.006 71.2122C308.401 71.0214 308.844 70.9146 309.312 70.9146C310.974 70.9146 312.321 72.2614 312.321 73.923H279.703C279.703 72.2618 281.05 70.9146 282.712 70.9146Z" fill="#C7ECEE"/>
<path d="M76.1085 70.7032C76.3401 70.7032 76.5633 70.7384 76.7733 70.8036C77.4529 69.8188 78.5881 69.1732 79.8753 69.1732C80.2665 69.1732 80.6437 69.2328 80.9985 69.3436C81.5957 67.1432 83.6061 65.5244 85.9957 65.5244C88.3513 65.5244 90.3385 67.098 90.9665 69.2508C91.2133 69.2 91.4685 69.1732 91.7301 69.1732C93.0689 69.1732 94.2437 69.8724 94.9117 70.9244C95.2053 70.7828 95.5349 70.7032 95.8829 70.7032C97.1181 70.7032 98.1193 71.7044 98.1193 72.9396H73.8721C73.8721 71.7044 74.8737 70.7032 76.1085 70.7032Z" fill="#C7ECEE"/>
<path d="M309.797 204.479C311.826 204.876 315.274 204.464 315.895 203.919C316.798 203.126 313.029 202.817 313.139 201.122C313.249 199.426 315.272 203.027 316.798 203.126C318.324 203.225 320.978 201.688 321.039 200.758C321.099 199.829 316.601 198.942 316.677 197.775C316.753 196.609 320.664 199.971 321.681 200.037C322.699 200.103 324.926 197.267 325.003 196.081C325.08 194.894 321.188 196.16 321.301 194.414C321.374 193.291 324.968 195.312 325.509 194.836C326.051 194.361 326.939 191.183 326.463 190.641C325.987 190.099 323.851 190.216 323.933 188.944C324.016 187.673 326.676 190.144 326.72 189.465C326.764 188.787 326.147 185.821 325.275 184.827C324.403 183.834 321.239 183.235 321.189 183.998C321.14 184.761 322.107 186.109 321.836 186.347C321.565 186.585 320.277 183.96 319.174 183.889C318.072 183.817 315.247 184.379 315.192 185.227C315.137 186.075 316.525 188.658 316.119 189.015C315.712 189.371 315.147 185.927 314.129 185.861C313.112 185.795 311.238 186.961 310.425 187.674C309.613 188.388 312.525 191.887 312.073 192.283C311.622 192.679 310.031 189.319 309.183 189.265C308.335 189.209 306.428 191.044 306.775 192.259C307.122 193.473 308.374 195.172 308.319 196.02C308.264 196.868 306.419 192.491 305.787 193.046C305.155 193.601 302.979 196.099 304.422 200.109C305.444 202.949 307.38 204.007 309.797 204.479Z" fill="#6AB04C"/>
<path d="M320.761 188.608C320.761 188.608 313.354 193.536 306.16 202.19C298.965 210.844 297.736 221.85 297.736 221.85" stroke="#130F40" stroke-width="0.4" stroke-miterlimit="10" stroke-linecap="round"/>
<path d="M282.91 201.423C280.875 201.062 277.807 199.436 277.424 198.703C276.867 197.638 280.494 198.708 281.002 197.087C281.511 195.466 278.326 198.096 276.867 197.638C275.408 197.18 273.486 194.79 273.765 193.902C274.043 193.013 278.558 193.806 278.908 192.691C279.258 191.575 274.398 193.302 273.425 192.997C272.452 192.692 271.396 189.245 271.751 188.11C272.107 186.974 275.282 189.558 275.805 187.889C276.142 186.815 272.061 187.405 271.727 186.766C271.393 186.128 271.711 182.844 272.35 182.51C272.989 182.176 274.939 183.054 275.321 181.838C275.702 180.622 272.33 181.969 272.533 181.321C272.737 180.672 274.381 178.127 275.552 177.515C276.723 176.903 279.891 177.484 279.663 178.214C279.434 178.943 278.046 179.852 278.213 180.172C278.38 180.491 280.528 178.507 281.582 178.838C282.636 179.168 285.069 180.71 284.814 181.521C284.56 182.332 282.335 184.241 282.585 184.72C282.836 185.199 284.605 182.19 285.577 182.494C286.55 182.8 287.879 184.563 288.379 185.521C288.88 186.479 284.903 188.694 285.181 189.226C285.459 189.758 288.154 187.198 288.965 187.452C289.776 187.706 290.893 190.105 290.132 191.112C289.371 192.12 287.591 193.254 287.337 194.065C287.083 194.876 290.38 191.458 290.77 192.203C291.159 192.948 292.289 196.063 289.499 199.284C287.522 201.565 285.335 201.854 282.91 201.423Z" fill="#6AB04C"/>
<path d="M294.103 188.787C292.919 187.092 291.9 183.773 292.147 182.984C292.507 181.838 294.314 185.159 295.82 184.372C297.326 183.585 293.215 183.193 292.507 181.837C291.798 180.482 292.13 177.433 292.955 177.001C293.781 176.57 296.412 180.323 297.448 179.782C298.485 179.241 293.827 177.025 293.354 176.122C292.882 175.218 294.573 172.034 295.627 171.483C296.681 170.932 297.736 174.441 298.65 174.193C299.736 173.899 296.344 171.204 296.56 170.516C296.775 169.828 299.322 167.73 300.01 167.946C300.698 168.161 301.456 170.162 302.585 169.572C303.714 168.981 300.378 167.55 300.98 167.235C301.582 166.92 304.545 166.283 305.806 166.678C307.067 167.073 308.896 169.725 308.218 170.079C307.541 170.433 305.917 170.095 305.809 170.439C305.701 170.783 308.623 170.898 309.134 171.877C309.646 172.856 310.276 175.666 309.523 176.06C308.77 176.453 305.846 176.23 305.684 176.746C305.523 177.262 308.902 176.384 309.374 177.288C309.846 178.191 309.538 180.377 309.215 181.409C308.891 182.441 304.513 181.194 304.333 181.767C304.154 182.341 307.87 182.435 308.264 183.189C308.657 183.942 307.752 186.428 306.501 186.603C305.25 186.777 303.19 186.32 302.436 186.713C301.683 187.107 306.432 187.022 306.18 187.824C305.929 188.627 304.526 191.628 300.275 191.932C297.264 192.148 295.513 190.806 294.103 188.787Z" fill="#6AB04C"/>
<path d="M278.28 183.653C278.28 183.653 282.119 193.537 289.313 202.19C296.507 210.844 297.737 221.85 297.737 221.85C297.737 221.85 295.783 190.201 302.665 173.889" stroke="#130F40" stroke-width="0.4" stroke-miterlimit="10" stroke-linecap="round"/>
</g>
</g>
<defs>
<linearGradient id="paint0_linear_12805_372353" x1="188" y1="-6.27307e-09" x2="188" y2="349" gradientUnits="userSpaceOnUse">
<stop stop-color="#FFCE7A"/>
<stop offset="0.5" stop-color="#FEF3C7"/>
<stop offset="1" stop-color="#DFF2FE"/>
</linearGradient>
<linearGradient id="paint1_linear_12805_372353" x1="187.5" y1="218.4" x2="187.5" y2="240.4" gradientUnits="userSpaceOnUse">
<stop stop-color="#FFCE7A"/>
<stop offset="0.5" stop-color="#FEF3C7"/>
<stop offset="1" stop-color="#FEF3C7" stop-opacity="0"/>
</linearGradient>
<clipPath id="clip0_12805_372353">
<rect width="300" height="200" fill="white" transform="translate(37.5 40)"/>
</clipPath>
<clipPath id="clip1_12805_372353">
<rect width="300" height="200" fill="white" transform="translate(37.5 40)"/>
</clipPath>
</defs>
</svg>
